<svg xmlns="http://www.w3.org/2000/svg" viewBox="0 0 32 32"><rect width="32" height="32" rx="7" fill="#FAF8F4"/><path fill="#1F3440" d="M18.89 14.80L18.89 14.80Q20.18 14.95 21.11 15.43L21.11 15.43Q22.34 16.12 22.88 17.30Q23.42 18.49 23.12 20.02L23.12 20.02Q22.85 21.52 21.82 22.77Q20.78 24.01 19.28 24.75Q17.78 25.48 16.04 25.48L16.04 25.48Q15.23 25.48 14.12 25.39Q13.01 25.30 12.11 25.30L12.11 25.30Q11.18 25.30 10.33 25.33Q9.47 25.36 8.84 25.36L8.84 25.36Q8.81 25.36 8.81 25.36L8.81 25.36Q8.75 25.33 8.78 25.18L8.78 25.18Q8.78 25 8.84 25L8.84 25Q9.77 25 10.28 24.84Q10.79 24.67 11.06 24.19Q11.33 23.71 11.48 22.87L11.48 22.87L13.94 8.98Q14.15 7.69 13.81 7.33Q13.46 6.97 12.11 6.97L12.11 6.97Q12.08 6.97 12.05 6.94L12.05 6.94Q11.99 6.91 12.02 6.79L12.02 6.79Q12.05 6.61 12.11 6.61L12.11 6.61Q12.80 6.61 13.63 6.66Q14.45 6.70 15.32 6.70L15.32 6.70Q16.10 6.70 17.00 6.61Q17.90 6.52 18.59 6.52L18.59 6.52Q20.42 6.52 21.50 7.03Q22.58 7.54 22.99 8.45Q23.39 9.37 23.12 10.60L23.12 10.60Q22.76 12.25 21.35 13.45L21.35 13.45Q20.33 14.29 18.89 14.80ZM15.65 24.91L15.65 24.91Q17.90 24.91 19.15 23.68Q20.39 22.45 20.75 20.44L20.75 20.44Q21.17 18.25 20.20 16.88Q19.22 15.52 16.79 15.52L16.79 15.52Q16.22 15.49 15.53 15.52L15.53 15.52Q15.20 15.52 14.87 15.58L14.87 15.58L13.58 22.99Q13.37 24.04 13.73 24.47Q14.09 24.91 15.65 24.91ZM18.05 7L18.05 7Q17.45 7 17.05 7.15Q16.64 7.30 16.40 7.78Q16.16 8.26 16.01 9.19L16.01 9.19L15.02 14.80Q15.32 14.80 15.59 14.80L15.59 14.80Q16.13 14.83 16.19 14.83L16.19 14.83Q18.29 14.83 19.49 13.58Q20.69 12.34 21.02 10.57L21.02 10.57Q21.26 9.49 21.04 8.71Q20.81 7.93 20.09 7.46Q19.37 7 18.05 7Z"/></svg>
